<svg id="Layer_1" data-name="Layer 1" xmlns="http://www.w3.org/2000/svg" viewBox="0 0 116.72 116.72"><defs><style>.cls-1{fill:#fff;}</style></defs><path class="cls-1" d="M58.64,47.48a10.8,10.8,0,1,0,10.79,10.8A10.81,10.81,0,0,0,58.64,47.48Z"/><path class="cls-1" d="M72,30.5H44.7A14.13,14.13,0,0,0,30.58,44.62V71.94A14.13,14.13,0,0,0,44.7,86.05H72A14.13,14.13,0,0,0,86.13,71.94V44.62A14.13,14.13,0,0,0,72,30.5ZM58.64,75.13A16.85,16.85,0,1,1,75.49,58.28,16.87,16.87,0,0,1,58.64,75.13ZM76.47,44.3a4,4,0,1,1,4-4A4,4,0,0,1,76.47,44.3Z"/><path class="cls-1" d="M58.36,0a58.36,58.36,0,1,0,58.36,58.36A58.36,58.36,0,0,0,58.36,0ZM92.57,71.94A20.57,20.57,0,0,1,72,92.49H44.7A20.57,20.57,0,0,1,24.15,71.94V44.62A20.58,20.58,0,0,1,44.7,24.06H72A20.58,20.58,0,0,1,92.57,44.62Z"/></svg>