<svg xmlns="http://www.w3.org/2000/svg" viewBox="0 0 31.23 33.05"><defs><style>.cls-1{fill:#663b17;}</style></defs><g id="Layer_1" data-name="Layer 1"><path class="cls-1" d="M30.53,31,18.64,19.11a10.72,10.72,0,1,0-1.51,1.19L29.18,32.35ZM2.4,11.27a8.87,8.87,0,1,1,8.87,8.87A8.88,8.88,0,0,1,2.4,11.27Z"/><path class="cls-1" d="M29.18,33.05,17.06,20.93a11.16,11.16,0,0,1-5.79,1.61A11.27,11.27,0,1,1,22.54,11.27a11.13,11.13,0,0,1-3.19,7.84L31.23,31Zm-12-13.39,12,12,.64-.64L17.92,19.1l.37-.35a10.16,10.16,0,0,0,3.25-7.48,10.28,10.28,0,1,0-4.68,8.61Zm-5.93,1a9.37,9.37,0,1,1,9.37-9.37A9.38,9.38,0,0,1,11.27,20.64Zm0-17.74a8.37,8.37,0,1,0,8.37,8.37A8.39,8.39,0,0,0,11.27,2.9Z"/></g></svg>