<svg xmlns="http://www.w3.org/2000/svg" viewBox="0 0 35.69 33.37"><defs><style>.cls-1{fill:#663b17;}</style></defs><g id="Layer_1" data-name="Layer 1"><path class="cls-1" d="M30.13,8H25.45A7.61,7.61,0,0,0,10.24,8H5.56L.61,32.87H35.08ZM17.85,2.4A5.71,5.71,0,0,1,23.55,8H12.15A5.71,5.71,0,0,1,17.85,2.4ZM7.12,9.86H28.57L32.77,31H2.93Z"/><path class="cls-1" d="M35.69,33.37H0L5.15,7.46H9.77a8.11,8.11,0,0,1,16.16,0h4.61Zm-34.47-1H34.47L29.72,8.46H25V8A7.11,7.11,0,0,0,10.74,8v.49H6Zm32.16-.9H2.32L6.71,9.36H29Zm-29.84-1H32.16l-4-20.11H7.53Zm20.52-22H11.63l0-.51a6.2,6.2,0,0,1,12.4,0Zm-11.38-1H23a5.21,5.21,0,0,0-10.33,0Z"/></g></svg>