<svg id="Layer_1" data-name="Layer 1" xmlns="http://www.w3.org/2000/svg" viewBox="0 0 116.72 116.72"><defs><style>.cls-1{fill:#fff;}</style></defs><path class="cls-1" d="M58.36,0a58.36,58.36,0,1,0,58.36,58.36A58.36,58.36,0,0,0,58.36,0Zm32.5,38.42a1.61,1.61,0,0,1-.33,1,25.54,25.54,0,0,1-5.09,5.29c-.29.22-.78.45-.78.86,0,10.51-2.68,21-10.34,28.62-9.76,9.69-24.39,12.33-37.39,8.74a36.38,36.38,0,0,1-7.23-2.89c-.76-.42-1.51-.85-2.25-1.34-.19-.15-.32-.29-.17-.39s.28-.08.87,0A25.49,25.49,0,0,0,39,76.94c1.89-.66,5.95-2,7.12-3.78,0,0,.06,0,.09-.08-.48-.11-1-.11-1.42-.19-3.53-1-8.25-2.78-10.43-8.74-.14-.34,0-.52.36-.45a15.17,15.17,0,0,0,5-.16A7.74,7.74,0,0,1,38,63a13.45,13.45,0,0,1-8.28-10.72,7.74,7.74,0,0,1-.09-1.5c0-.35.18-.46.49-.27A13.51,13.51,0,0,0,35.14,52a19.92,19.92,0,0,1-1.61-1.42c-3.86-3.65-5.36-11.08-2.27-15.71.25-.38.42-.38.72,0,7.06,8,15.75,11.79,26.23,13.35.28,0,.3,0,.26-.31a14,14,0,0,1,.14-5.48,13.29,13.29,0,0,1,2.59-5.19,13.78,13.78,0,0,1,4.34-3.54,13.48,13.48,0,0,1,5.38-1.52,12.78,12.78,0,0,1,5.67.91,13.7,13.7,0,0,1,3.7,2.27A6.12,6.12,0,0,1,81,36a.51.51,0,0,0,.53.14,33,33,0,0,0,7.63-2.92.37.37,0,0,1,.34,0c.11.08.07.22,0,.34a11.85,11.85,0,0,1-2.14,3.89c-.61.76-2.13,2.63-3.16,2.81a26.14,26.14,0,0,0,6.43-1.84c.26-.12.26-.17.26,0Z"/></svg>