<svg id="Layer_1" data-name="Layer 1" xmlns="http://www.w3.org/2000/svg" viewBox="0 0 400 105.07"><defs><style>.cls-1{fill:#db7e8f;}.cls-2{fill:#663a14;}.cls-3{fill:#ccb49e;}.cls-4{fill:#bddc9b;}.cls-5{fill:#fff;}.cls-6{fill:#b19aca;}</style></defs><path class="cls-1" d="M348,.79,52.28,0h-.15A52.14,52.14,0,0,0,52,104.28l295.73.79h.14A52.14,52.14,0,0,0,348,.79Z"/><path class="cls-2" d="M389.65,53.05a41.78,41.78,0,0,1-41.89,41.67L52,93.93A41.79,41.79,0,0,1,10.35,52h0a41.79,41.79,0,0,1,41.9-41.68l295.73.8a41.78,41.78,0,0,1,41.67,41.9Z"/><path class="cls-1" d="M254.25,60.38l0-8.23c0-9.9,4.27-15.7,13.18-15.68s13.13,5.85,13.11,15.75l0,8.23c0,9.9-4.28,15.7-13.2,15.68S254.23,70.28,254.25,60.38Zm4.55-4.14c0,10,1.09,16.24,8.56,16.26S276,66.26,276,56.29s-1.09-16.17-8.57-16.19S258.82,46.34,258.8,56.24Z"/><path class="cls-3" d="M311.31,48.29c.23-4.75-1.49-8.08-6.71-8.09a6.27,6.27,0,0,0-6.12,4.36c-.62,1.74-1.08,6.95-1.09,12,0,6.87-.05,16,7,16,6,0,6.73-3.76,7-8.36h4.53c.35,10.27-6.91,12-10.46,12-12.91,0-12.88-10.23-12.85-19.67,0-3.78.16-9.75,1.16-12.61,2-5.44,6.29-7.39,11.5-7.38,6.57,0,11,3.73,10.62,11.74Z"/><path class="cls-4" d="M326.13,60.57l0-8.23c0-9.89,4.28-15.7,13.19-15.67s13.13,5.85,13.1,15.74l0,8.23c0,9.9-4.27,15.7-13.19,15.68S326.1,70.47,326.13,60.57Zm4.54-4.14c0,10,1.1,16.24,8.57,16.26s8.63-6.24,8.65-16.21-1.08-16.17-8.56-16.19S330.7,46.53,330.67,56.43Z"/><path class="cls-5" d="M65.42,62l-.06,1.11C65.12,67.84,64.28,70,60,70h0c-5.08,0-5.47-6.36-5.45-14,0-5.13.51-9.71,1-11a4.84,4.84,0,0,1,4.69-3.36h0A5.22,5.22,0,0,1,64,42.9c1,1,1.42,2.76,1.3,5.12l-.07,1.22,6.63,0L72,48.15c.2-3.93-.75-7-2.8-9.18s-4.87-3.16-8.43-3.17h0c-6.06,0-10.07,2.61-12,7.78-.77,2.2-1.16,6.35-1.18,12.33,0,8.81,0,19.77,13.35,19.8h0a11.32,11.32,0,0,0,8-3.17c2.14-2.2,3.15-5.36,3-9.38l0-1.13Z"/><path class="cls-5" d="M84.14,75.06l6.63,0,.07-23.85c0-6.08,2.43-9.56,6.64-9.56h0c4.54,0,5.48,3.82,5.47,7l-.07,26.43,6.62,0,.07-26.64c0-3.11,0-12.55-11-12.58h0a10.69,10.69,0,0,0-7.69,3.25l0-11.26H84.27Z"/><path class="cls-5" d="M135.87,36h-.05c-4.48,0-7.93,1.45-10.26,4.33-2.21,2.72-3.33,6.65-3.35,11.68l0,7.81c0,10.35,4.8,16.06,13.58,16.08h.06c4.47,0,7.91-1.45,10.25-4.33,2.2-2.72,3.33-6.65,3.34-11.68l0-7.81c0-5-1.09-9-3.28-11.7C143.83,37.49,140.37,36,135.87,36Zm5.59,30.71c-1,2.37-2.78,3.43-5.65,3.43h0c-5.29,0-7-3.47-7-14.24s1.74-14.09,7-14.14,7,3.46,6.95,14.18C142.8,59.76,142.63,64,141.46,66.72Z"/><path class="cls-5" d="M178.28,62.32l-.06,1.11c-.25,4.71-1.09,6.82-5.41,6.82h0c-5.07,0-5.46-6.36-5.44-14,0-5.21.5-9.69,1-11A4.84,4.84,0,0,1,173,41.87a5.19,5.19,0,0,1,3.89,1.34c1,1,1.42,2.76,1.3,5.11l-.07,1.23h6.63l.06-1.11c.19-3.93-.75-7-2.8-9.18s-4.87-3.15-8.42-3.16c-6.1-.07-10.13,2.59-12,7.77-.76,2.21-1.15,6.35-1.17,12.33,0,8.81,0,19.77,13.35,19.81h0a11.38,11.38,0,0,0,8-3.17c2.13-2.2,3.15-5.36,3-9.39l0-1.12Z"/><path class="cls-5" d="M209.8,36.21h-.06c-4.47,0-7.92,1.45-10.25,4.33-2.21,2.72-3.34,6.65-3.35,11.68l0,7.8c0,10.36,4.79,16.07,13.57,16.09h.05c8.75,0,13.58-5.68,13.61-16l0-7.81c0-5-1.09-9-3.28-11.7C217.76,37.69,214.3,36.22,209.8,36.21Zm-.06,34.14h0c-5.3,0-7-3.47-7-14.24,0-3.79.18-8,1.35-10.71,1-2.37,2.78-3.43,5.65-3.43h0c2.89,0,4.63,1.08,5.66,3.46,1.16,2.69,1.31,6.93,1.3,10.72C216.71,66.89,215,70.35,209.74,70.35Z"/><rect class="cls-6" x="215.01" y="49.84" width="47.62" height="4.53" transform="translate(186.06 290.78) rotate(-89.85)"/></svg>