<svg id="Layer_1" data-name="Layer 1" xmlns="http://www.w3.org/2000/svg" xmlns:xlink="http://www.w3.org/1999/xlink" viewBox="0 0 280.48 31.13"><defs><style>.cls-1{fill:none;}.cls-2{clip-path:url(#clip-path);}.cls-3{fill:#562e07;}.cls-4{fill:#c49a6c;}.cls-5{fill:#db7e8f;}.cls-6{fill:#b462a7;}.cls-7{fill:#bddc9b;}.cls-8{fill:#ccb49e;}</style><clipPath id="clip-path"><rect class="cls-1" width="280.48" height="31.13"/></clipPath></defs><g class="cls-2"><rect class="cls-3" width="280.48" height="31.13"/><rect class="cls-4" width="5.83" height="31.13"/><rect class="cls-5" x="9.35" width="5.83" height="31.13"/><rect class="cls-6" x="18.7" width="5.83" height="31.13"/><rect class="cls-4" x="46.75" width="5.83" height="31.13"/><rect class="cls-5" x="37.4" width="5.83" height="31.13"/><rect class="cls-7" x="28.05" width="5.83" height="31.13"/><rect class="cls-8" x="56.1" width="5.83" height="31.13"/><rect class="cls-5" x="65.44" width="5.83" height="31.13"/><rect class="cls-7" x="74.79" width="5.83" height="31.13"/><rect class="cls-4" x="102.84" width="5.83" height="31.13"/><rect class="cls-5" x="93.49" width="5.83" height="31.13"/><rect class="cls-6" x="84.14" width="5.83" height="31.13"/><rect class="cls-5" x="112.19" width="5.83" height="31.13"/><rect class="cls-7" x="121.54" width="5.83" height="31.13"/><rect class="cls-4" x="130.9" width="5.81" height="31.13"/><rect class="cls-5" x="140.24" width="5.81" height="31.13"/><rect class="cls-6" x="149.59" width="5.81" height="31.13"/><rect class="cls-6" x="177.64" width="5.81" height="31.13"/><rect class="cls-5" x="168.29" width="5.81" height="31.13"/><rect class="cls-7" x="158.94" width="5.81" height="31.13"/><rect class="cls-4" x="186.99" width="5.81" height="31.13"/><rect class="cls-5" x="196.34" width="5.81" height="31.13"/><rect class="cls-8" x="205.69" width="5.81" height="31.13"/><rect class="cls-4" x="233.74" width="5.81" height="31.13"/><rect class="cls-5" x="224.39" width="5.81" height="31.13"/><rect class="cls-7" x="215.04" width="5.81" height="31.13"/><rect class="cls-8" x="243.09" width="5.81" height="31.13"/><rect class="cls-7" x="252.44" width="5.81" height="31.13"/><rect class="cls-6" x="261.78" width="5.83" height="31.13"/><rect class="cls-7" x="271.13" width="5.83" height="31.13"/></g></svg>